<?xml version="1.0" encoding="iso-8859-1"?>
<!-- Generator: Adobe Illustrator 19.0.0, SVG Export Plug-In . SVG Version: 6.00 Build 0)  -->
<svg version="1.1" id="Layer_1" xmlns="http://www.w3.org/2000/svg" xmlns:xlink="http://www.w3.org/1999/xlink" x="0px" y="0px"
	 viewBox="0 0 512 512" style="enable-background:new 0 0 512 512;" xml:space="preserve">
<path style="fill:#F25B22;" d="M434.312,58.422c18.28,0,33.088,14.806,33.088,33.088c0,18.28-14.806,33.088-33.088,33.088
	c-18.28,0-33.088-14.806-33.088-33.088C401.226,73.228,416.032,58.422,434.312,58.422z"/>
<path style="fill:#5C6164;" d="M310.235,139.734c68.077,28.951,115.806,96.449,115.806,175.114
	c0,105.052-85.2,190.252-190.252,190.252S45.537,419.9,45.537,314.848c0-78.665,47.729-146.163,115.805-175.114V83.237h148.893
	L310.235,139.734L310.235,139.734z"/>
<circle style="fill:#44494C;" cx="235.788" cy="314.851" r="140.625"/>
<path d="M433.845,49.631c-19.887,0-36.499,14.258-40.171,33.088h-34.276c-0.122,0-0.224-0.005-0.305-0.013
	c-0.055-0.175-0.105-0.395-0.12-0.57V16.118C358.972,5.649,350.667,0,342.855,0h-99.262c-10.469,0-16.117,8.304-16.117,16.118
	v58.329h-74.447v59.227C82.505,165.86,37.223,236.036,37.223,313.904C37.223,423.135,126.089,512,235.32,512
	s198.098-88.865,198.098-198.096c0-77.869-45.282-148.043-115.806-180.229V74.447h-74.446V16.118c0-0.002,0.058-0.223,0.121-0.415
	c0.082-0.006,0.183-0.012,0.304-0.012h99.106c0.175,0.017,0.395,0.066,0.57,0.12c0.007,0.082,0.013,0.184,0.013,0.307v66.174
	c0,7.813,5.648,16.117,16.117,16.117h34.276c3.671,18.83,20.284,33.088,40.171,33.088c22.57,0,40.932-18.363,40.932-40.933
	S456.415,49.631,433.845,49.631z M301.922,90.138v53.841l4.774,2.029c67.45,28.685,111.032,94.587,111.032,167.895
	c0,100.578-81.827,182.405-182.406,182.405S52.915,414.482,52.915,313.904c0-73.308,43.582-139.21,111.031-167.895l4.774-2.029
	V90.138H301.922z M342.73,15.691h0.124C342.855,15.691,342.811,15.694,342.73,15.691z M358.972,82.293v-0.123
	C358.975,82.249,358.972,82.293,358.972,82.293z M433.845,115.806c-13.919,0-25.242-11.323-25.242-25.242
	s11.323-25.242,25.242-25.242c13.918,0,25.241,11.323,25.241,25.242S447.763,115.806,433.845,115.806z"/>
<rect x="202.23" y="107.538" style="fill:#FFFFFF;" width="66.175" height="15.691"/>
<rect x="276.68" y="107.538" width="16.543" height="15.691"/>
<rect x="177.416" y="107.538" width="16.543" height="15.691"/>
<path style="fill:#FFFFFF;" d="M95.126,313.904h15.691c0-68.652,55.853-124.504,124.504-124.504v-15.691
	C158.017,173.709,95.126,236.6,95.126,313.904z"/>
<rect x="94.702" y="330.877" width="16.543" height="15.691"/>
<g>
	<rect x="111.241" y="355.691" style="fill:#FFFFFF;" width="16.544" height="15.691"/>
	<rect x="425.569" y="82.714" style="fill:#FFFFFF;" width="16.543" height="15.691"/>
</g>
<g>
</g>
<g>
</g>
<g>
</g>
<g>
</g>
<g>
</g>
<g>
</g>
<g>
</g>
<g>
</g>
<g>
</g>
<g>
</g>
<g>
</g>
<g>
</g>
<g>
</g>
<g>
</g>
<g>
</g>
</svg>
